<svg width="150" height="150" viewBox="0 0 150 150" fill="none" xmlns="http://www.w3.org/2000/svg">
<path d="M50.6252 61.9362V61.2969H45.0939V62.0394H43.8789V79.445H51.9508V61.9362H50.6252V61.9362ZM51.2514 77.45H44.4939V76.9344H51.2514V77.45V77.45ZM51.2514 75.0725H44.4939V74.5569H51.2514V75.0725V75.0725ZM51.2514 72.695H44.4939V72.1794H51.2514V72.695V72.695ZM51.2514 70.3812H44.4939V69.8656H51.2514V70.3812V70.3812ZM51.2514 68.0731H44.4939V67.5575H51.2514V68.0731V68.0731ZM51.2514 65.6956H44.4939V65.18H51.2514V65.6956V65.6956ZM51.2514 63.3819H44.4939V62.8662H51.2514V63.3819V63.3819Z" fill="url(#paint0_linear_13565_44679)"/>
<path d="M39.7531 71.6509V51.3653H33.6125V49.7266H31.0119V59.7259H30.3125V90.3184H41.2831V71.6509H39.7531ZM35.1594 77.6153H33.6106V76.1134H35.1594V77.6153ZM35.1594 75.2659H33.6106V73.7641H35.1594V75.2659ZM35.1594 72.9259H33.6106V71.4241H35.1594V72.9259ZM35.1594 70.5953H33.6106V69.0934H35.1594V70.5953ZM35.1594 68.2459H33.6106V66.7441H35.1594V68.2459ZM35.1594 63.5566H33.6106V62.0547H35.1594V63.5566ZM35.1594 61.2091H33.6106V59.7072H35.1594V61.2091ZM35.1594 58.8691H33.6106V57.3672H35.1594V58.8691ZM35.1594 56.5366H33.6106V55.0347H35.1594V56.5366ZM35.1594 54.1872H33.6106V52.6872H35.1594V54.1872ZM37.475 77.6153H35.9263V76.1134H37.475V77.6153ZM37.475 75.2659H35.9263V73.7641H37.475V75.2659ZM37.475 72.9259H35.9263V71.4241H37.475V72.9259ZM37.475 70.5953H35.9263V69.0934H37.475V70.5953ZM37.475 68.2459H35.9263V66.7441H37.475V68.2459ZM37.475 63.5566H35.9263V62.0547H37.475V63.5566ZM37.475 61.2091H35.9263V59.7072H37.475V61.2091ZM37.475 58.8691H35.9263V57.3672H37.475V58.8691ZM37.475 56.5366H35.9263V55.0347H37.475V56.5366ZM37.475 54.1872H35.9263V52.6872H37.475V54.1872Z" fill="url(#paint1_linear_13565_44679)"/>
<path d="M100.188 82.3166C100.255 81.4447 100.188 52.9766 100.188 52.9766H103.662V59.2972H109.193V72.5066H112.33V82.3166H100.188V82.3166Z" fill="url(#paint2_linear_13565_44679)"/>
<path d="M122.914 69.5396V68.6302H121.977V60.6934H119.689V59.8121H118.146V58.5165H117.342V54.7402H116.762V58.5427H116.023V59.8384H113.736V61.9609H112.414V86.5665H123.548V69.5377H122.914V69.5396ZM114.381 79.4359H113.627V76.5784H114.381V79.4359ZM114.381 75.939H113.627V73.0815H114.381V75.939ZM114.381 72.4421H113.627V69.5846H114.381V72.4421ZM114.381 68.8815H113.627V66.024H114.381V68.8815ZM114.381 65.3227H113.627V62.4652H114.381V65.3227ZM115.933 79.4359H115.18V76.5784H115.933V79.4359ZM115.933 75.939H115.18V73.0815H115.933V75.939ZM115.933 72.4421H115.18V69.5846H115.933V72.4421ZM115.933 68.8815H115.18V66.024H115.933V68.8815ZM115.933 65.3227H115.18V62.4652H115.933V65.3227ZM117.486 79.4359H116.732V76.5784H117.486V79.4359ZM117.486 75.939H116.732V73.0815H117.486V75.939ZM117.486 72.4421H116.732V69.5846H117.486V72.4421ZM117.486 68.8815H116.732V66.024H117.486V68.8815ZM117.486 65.3227H116.732V62.4652H117.486V65.3227ZM119.038 79.4359H118.285V76.5784H119.038V79.4359ZM119.038 75.939H118.285V73.0815H119.038V75.939ZM119.038 72.4421H118.285V69.5846H119.038V72.4421ZM119.038 68.8815H118.285V66.024H119.038V68.8815ZM119.038 65.3227H118.285V62.4652H119.038V65.3227ZM120.591 79.4359H119.837V76.5784H120.591V79.4359ZM120.591 75.939H119.837V73.0815H120.591V75.939ZM120.591 72.4421H119.837V69.5846H120.591V72.4421ZM120.591 68.8815H119.837V66.024H120.591V68.8815ZM120.591 65.3227H119.837V62.4652H120.591V65.3227Z" fill="url(#paint3_linear_13565_44679)"/>
<path d="M17.6055 94.457V77.6682H19.5273V69.0995L26.1386 66.2363V77.5332H27.5898V94.457H17.6055Z" fill="url(#paint4_linear_13565_44679)"/>
<path d="M131 91.3446H125.197V68.2559L131 71.0646V91.3446Z" fill="url(#paint5_linear_13565_44679)"/>
<path d="M16.634 35.6933C16.634 35.6933 18.3852 30.9158 22.6902 32.7908C23.684 31.782 24.914 31.0489 26.5771 31.3789C28.2402 31.7108 29.3127 32.9558 29.6765 33.7845C30.1977 33.7601 34.3715 33.8989 34.3715 38.2283C34.3715 42.5576 29.3202 42.4751 28.9546 42.132C28.5046 42.5333 26.3409 44.7101 23.7159 42.2258C23.1477 42.7114 21.2915 44.7683 18.3571 41.9295C16.9977 42.4976 13.7671 42.9345 13.1409 39.5989C12.5146 36.2633 15.7284 35.322 16.634 35.6933Z" fill="url(#paint6_linear_13565_44679)"/>
<path d="M113.585 28.789C113.585 28.789 115.336 24.0115 119.641 25.8865C120.635 24.8777 121.865 24.1446 123.528 24.4746C125.191 24.8065 126.264 26.0515 126.628 26.8802C127.149 26.8558 131.323 26.9946 131.323 31.324C131.323 35.6533 126.271 35.5708 125.906 35.2277C125.456 35.629 123.292 37.8058 120.667 35.3215C120.099 35.8071 118.243 37.864 115.308 35.0252C113.949 35.5933 110.718 36.0302 110.092 32.6946C109.466 29.359 112.68 28.4177 113.585 28.789Z" fill="url(#paint7_linear_13565_44679)"/>
<path d="M91.2088 39.0123C91.2088 39.0123 92.4763 35.553 95.5926 36.9123C96.3126 36.1811 97.2013 35.6505 98.4069 35.8905C99.6107 36.1305 100.387 37.0323 100.649 37.6305C101.026 37.6136 104.049 37.713 104.049 40.8461C104.049 43.9792 100.393 43.9192 100.128 43.6717C99.8019 43.9623 98.2363 45.5373 96.3351 43.7411C95.9244 44.0917 94.5801 45.5823 92.4576 43.5273C91.4732 43.938 89.1351 44.2548 88.6813 41.8398C88.2276 39.4248 90.5526 38.7442 91.2088 39.0123Z" fill="url(#paint8_linear_13565_44679)"/>
<path d="M75.0002 141.251C113.416 141.251 144.559 126.471 144.559 108.24C144.559 90.0082 113.416 75.2285 75.0002 75.2285C36.5839 75.2285 5.44141 90.0082 5.44141 108.24C5.44141 126.471 36.5839 141.251 75.0002 141.251Z" fill="url(#paint9_linear_13565_44679)"/>
<path d="M27.3667 104.204C27.3667 104.204 26.7048 105.143 27.8111 106.542C28.7973 107.787 30.3554 107.545 30.8729 107.146C31.0323 108.23 32.3617 110.513 34.4654 109.221C36.4436 108.008 35.4911 106.163 34.8592 105.438C36.0948 105.089 37.0154 102.128 34.1804 101.106C34.6004 99.8839 34.6754 99.3308 34.0604 98.232C33.4679 97.1745 32.4948 97.0058 30.9423 97.6489L28.6961 98.5958L27.2654 95.9258L26.5004 96.3683L28.1504 98.9183L25.9642 100.015C25.9642 100.015 24.0948 100.746 24.9011 102.753C25.6492 104.611 27.3667 104.204 27.3667 104.204Z" fill="url(#paint10_linear_13565_44679)"/>
<path d="M23.5603 92.8182H30.3215C30.3215 92.8182 32.5059 92.88 32.9409 90.3844C33.419 87.645 31.4259 87.2682 31.4259 87.2682C31.4259 87.2682 32.6259 86.7169 32.3653 84.645C32.1047 82.5732 30.2803 82.3125 29.5209 82.4082C29.6447 81.18 29.9034 78.3994 27.0159 78.3713C24.2278 78.3432 24.2447 81.15 24.4528 82.2563C23.459 82.2675 20.4572 83.7582 22.5684 87.0282C21.419 88.0125 20.9334 88.5807 20.984 90C21.0347 91.4213 21.9047 92.8182 23.5603 92.8182Z" fill="url(#paint11_linear_13565_44679)"/>
<path d="M30.1551 89.0231L27.2713 90.9206L27.1926 89.0869L29.017 86.9381L27.1663 88.4344L26.9245 82.8281L26.7482 88.47L24.8038 86.9212L26.7313 89.0456L26.6713 90.9338L23.7051 88.755L26.6507 91.6144L26.5007 96.3694H27.5057L27.3032 91.6444L30.1551 89.0231Z" fill="#C6D5E6"/>
<path d="M125.322 100.77C125.322 100.77 124.712 101.637 125.731 102.923C126.638 104.07 128.074 103.847 128.551 103.478C128.697 104.475 129.923 106.577 131.86 105.39C133.681 104.273 132.805 102.574 132.222 101.907C133.36 101.586 134.207 98.8579 131.597 97.9185C131.986 96.7935 132.055 96.2835 131.487 95.2729C130.941 94.2998 130.045 94.1423 128.616 94.7366L126.546 95.6085L125.228 93.1504L124.525 93.5573L126.044 95.9048L124.032 96.9154C124.032 96.9154 122.311 97.5885 123.053 99.4373C123.741 101.145 125.322 100.77 125.322 100.77Z" fill="url(#paint12_linear_13565_44679)"/>
<path d="M121.817 90.2878H128.042C128.042 90.2878 130.053 90.3459 130.453 88.0472C130.892 85.5253 129.058 85.1784 129.058 85.1784C129.058 85.1784 130.164 84.6703 129.922 82.7634C129.68 80.8565 128.002 80.6147 127.303 80.7047C127.417 79.574 127.655 77.0128 124.997 76.9865C122.43 76.9603 122.445 79.544 122.636 80.564C121.721 80.5734 118.955 81.9459 120.902 84.959C119.844 85.8647 119.396 86.3897 119.443 87.6947C119.49 88.9997 120.29 90.2878 121.817 90.2878Z" fill="url(#paint13_linear_13565_44679)"/>
<path d="M127.889 86.7935L125.232 88.541L125.161 86.8516L126.839 84.8735L125.135 86.2516L124.914 81.0879L124.75 86.2854L122.96 84.8585L124.735 86.8141L124.681 88.5523L121.949 86.546L124.66 89.1804L124.524 93.5585H125.448L125.262 89.2066L127.889 86.7935Z" fill="#C6D5E6"/>
<path d="M42.9146 83.8588C42.9146 83.8588 42.5864 84.3238 43.1339 85.0157C43.6215 85.6326 44.3921 85.5126 44.649 85.3138C44.7277 85.8501 45.3858 86.9788 46.4265 86.3413C47.4052 85.7413 46.9346 84.8282 46.6215 84.4701C47.2327 84.2976 47.6883 82.8332 46.2858 82.3288C46.494 81.7251 46.5315 81.4513 46.2258 80.9076C45.9333 80.3844 45.4515 80.3001 44.6846 80.6188L43.5727 81.0876L42.8658 79.7676L42.4871 79.9869L43.3027 81.2469L42.2208 81.7888C42.2208 81.7888 41.2964 82.1507 41.6958 83.1426C42.0652 84.0613 42.9146 83.8588 42.9146 83.8588Z" fill="url(#paint14_linear_13565_44679)"/>
<path d="M41.0328 78.2277H44.3759C44.3759 78.2277 45.4559 78.2577 45.6715 77.024C45.9078 75.6684 44.9215 75.4827 44.9215 75.4827C44.9215 75.4827 45.5159 75.209 45.3865 74.1852C45.2572 73.1615 44.3553 73.0321 43.9803 73.079C44.0422 72.4715 44.1697 71.0952 42.7409 71.0821C41.3609 71.069 41.3703 72.4565 41.4734 73.004C40.9822 73.0096 39.4972 73.7465 40.5415 75.3646C39.9734 75.8502 39.7315 76.1334 39.7578 76.8346C39.784 77.5359 40.2134 78.2277 41.0328 78.2277Z" fill="url(#paint15_linear_13565_44679)"/>
<path d="M44.2948 76.3509L42.8679 77.2902L42.8285 76.3827L43.7304 75.3196L42.8154 76.0602L42.6973 73.2871L42.6091 76.0771L41.6473 75.3121L42.5998 76.3621L42.5716 77.2959L41.1035 76.2177L42.5604 77.6334L42.4873 79.9846H42.9841L42.8829 77.6465L44.2948 76.3509Z" fill="#C6D5E6"/>
<path d="M107.87 95.4666L137.84 115.818L77.7573 137.718L47.3711 85.5966L92.1892 84.2578L107.87 95.4666Z" fill="url(#paint16_linear_13565_44679)"/>
<path d="M77.7581 89.6295C91.9667 89.6295 103.485 78.1112 103.485 63.9027C103.485 49.6941 91.9667 38.1758 77.7581 38.1758C63.5496 38.1758 52.0312 49.6941 52.0312 63.9027C52.0312 78.1112 63.5496 89.6295 77.7581 89.6295Z" fill="url(#paint17_linear_13565_44679)"/>
<path d="M77.7573 84.2569C88.9991 84.2569 98.1124 75.1436 98.1124 63.9019C98.1124 52.6601 88.9991 43.5469 77.7573 43.5469C66.5156 43.5469 57.4023 52.6601 57.4023 63.9019C57.4023 75.1436 66.5156 84.2569 77.7573 84.2569Z" fill="url(#paint18_linear_13565_44679)"/>
<path d="M68.7405 96.9928C82.9491 96.9928 94.4674 85.4745 94.4674 71.2659C94.4674 57.0574 82.9491 45.5391 68.7405 45.5391C54.532 45.5391 43.0137 57.0574 43.0137 71.2659C43.0137 85.4745 54.532 96.9928 68.7405 96.9928Z" fill="url(#paint19_linear_13565_44679)"/>
<path d="M68.7398 91.6202C79.9815 91.6202 89.0948 82.5069 89.0948 71.2652C89.0948 60.0234 79.9815 50.9102 68.7398 50.9102C57.498 50.9102 48.3848 60.0234 48.3848 71.2652C48.3848 82.5069 57.498 91.6202 68.7398 91.6202Z" fill="url(#paint20_linear_13565_44679)"/>
<path d="M70.339 58.4323L73.0502 63.926C73.309 64.451 73.8115 64.8166 74.3927 64.901L80.4546 65.7823C81.9152 65.9941 82.5002 67.7904 81.4427 68.8216L77.0571 73.0966C76.6371 73.5054 76.4459 74.096 76.5452 74.6735L77.5802 80.711C77.8296 82.166 76.3015 83.276 74.9946 82.5898L69.5721 79.7398C69.0527 79.466 68.4321 79.466 67.9146 79.7398L62.4921 82.5898C61.1852 83.2779 59.6571 82.1679 59.9065 80.711L60.9415 74.6735C61.0409 74.096 60.8496 73.5054 60.4296 73.0966L56.044 68.8216C54.9865 67.7904 55.5696 65.9941 57.0321 65.7823L63.094 64.901C63.6752 64.8166 64.1759 64.4529 64.4365 63.926L67.1477 58.4323C67.7965 57.1085 69.6846 57.1085 70.339 58.4323Z" fill="url(#paint21_linear_13565_44679)"/>
<path d="M98.5837 79.8613C93.4538 79.8613 89.2969 81.7269 89.2969 84.0257V95.4669C89.2969 97.7676 93.4556 99.6313 98.5837 99.6313C103.714 99.6313 107.871 97.7657 107.871 95.4669V84.0257C107.871 81.7251 103.714 79.8613 98.5837 79.8613Z" fill="url(#paint22_linear_13565_44679)"/>
<path d="M98.5837 88.1606C103.116 88.1606 106.026 87.0487 107.871 85.7831V84.0244C107.871 83.9756 107.867 83.9287 107.863 83.88C106.376 85.2094 103.605 86.6606 98.5837 86.6606C93.3206 86.6606 90.6506 85.0837 89.3231 83.7188C89.3062 83.82 89.2949 83.9212 89.2949 84.0225V85.6744C91.0555 86.9869 93.9299 88.1606 98.5837 88.1606Z" fill="url(#paint23_linear_13565_44679)"/>
<path d="M89.2969 90.2793V92.2631C91.0556 93.5756 93.93 94.7493 98.5837 94.7493C103.116 94.7493 106.026 93.6374 107.871 92.3718V90.4762C106.389 91.8037 103.622 93.2493 98.5837 93.2493C93.285 93.2493 90.6131 91.6499 89.2969 90.2793Z" fill="url(#paint24_linear_13565_44679)"/>
<path d="M89.9848 89.108C89.9848 89.108 90.1273 89.3012 89.7129 90.0005C90.3429 90.2181 91.1735 89.9593 91.1735 89.9593L91.1285 88.7949L89.9848 89.108Z" fill="#FFBE92"/>
<path d="M91.5481 90.6596L87.8844 90.8471C87.8844 90.8471 87.6425 89.7577 89.0862 89.7277C89.3787 89.722 89.6037 89.3808 89.8437 89.3789C90.4194 89.8477 91.37 89.7183 91.37 89.7183L91.5481 90.6596Z" fill="#F8B62D"/>
<path d="M91.6346 90.8955L90.0277 91.1205L89.9527 90.8298L87.8884 91.068L87.834 90.8223L91.539 90.3555L91.6346 90.8955Z" fill="#E6E8E8"/>
<path d="M88.1441 89.6402C88.1441 89.6402 88.3898 89.9252 87.8066 90.4971C88.3579 90.8665 89.0685 90.7671 89.0685 90.7671L89.3292 89.6309L88.1441 89.6402Z" fill="#FFBE92"/>
<path d="M89.4183 91.5494L85.7526 91.4632C85.7526 91.4632 85.6008 90.3569 87.0426 90.4375C87.3333 90.4544 87.5864 90.13 87.8264 90.145C88.3608 90.6569 89.3189 90.5969 89.3189 90.5969L89.4183 91.5494Z" fill="#F8B62D"/>
<path d="M89.4832 91.7916L87.8651 91.8966L87.8144 91.6004L85.7388 91.6848L85.7051 91.4335L89.4326 91.2441L89.4832 91.7916Z" fill="#E6E8E8"/>
<path d="M93.2868 82.895C93.2868 82.895 88.635 81.6388 88.1925 82.715C87.75 83.7913 88.6593 85.5294 89.1112 86.8325C89.5631 88.1357 89.9043 89.3019 89.9043 89.3019L91.3575 89.1669L90.8193 84.6163C90.8193 84.6163 91.1325 83.8082 92.2237 83.7182C93.3131 83.6319 93.2868 82.895 93.2868 82.895Z" fill="url(#paint25_linear_13565_44679)"/>
<path d="M94.963 82.2498C94.963 82.2498 90.2286 81.6329 89.6755 82.4017C89.1223 83.1704 88.0273 89.9504 88.0273 89.9504L89.2442 90.436C89.2442 90.436 91.1098 85.3754 91.5505 85.1429C91.9273 84.9442 93.0317 85.1579 94.0799 85.4692C95.128 85.7804 96.9149 86.1498 97.7249 84.1735C97.3574 82.0454 94.963 82.2498 94.963 82.2498Z" fill="url(#paint26_linear_13565_44679)"/>
<path d="M94.2895 73.6573C94.2895 73.6573 93.6689 74.4729 94.1039 75.7648C94.2145 76.0123 94.4283 76.4417 95.017 76.1173C95.0676 76.106 95.1014 76.1792 95.1145 76.2486C95.1276 76.3179 95.287 77.5085 95.287 77.5085L96.982 77.5179C96.982 77.5179 96.1964 74.5686 96.2114 73.9892C96.217 73.6911 95.9001 73.1698 95.272 73.1417C94.6439 73.1136 94.2895 73.6573 94.2895 73.6573Z" fill="#FFBE92"/>
<path d="M94.7466 72.566C94.7466 72.566 94.5741 72.2416 94.0997 72.4779C93.6254 72.7141 93.8523 73.1323 93.8691 73.2373C93.886 73.3423 93.8204 73.4229 93.6798 73.3666C93.5391 73.3085 93.2898 73.2691 93.1173 73.5879C92.9448 73.9066 93.3104 74.7523 93.8654 74.6679C94.4204 74.5835 94.6979 74.3004 94.8966 74.0979C95.0954 73.8954 95.4816 73.6554 95.5379 73.8935C95.5941 74.1316 95.5791 74.6323 95.6897 74.5591C95.7929 74.4898 95.7329 73.9779 96.0404 73.976C96.3479 73.976 96.3254 74.4185 96.1229 74.6566C96.0366 74.7579 96.0423 74.7391 96.0723 74.8423C96.1023 74.9454 96.0948 75.0166 96.2054 75.1385C96.3179 75.2622 96.3629 75.3279 96.4547 75.1497C96.5466 74.9716 96.7191 74.6304 96.6273 73.9085C96.5898 73.706 96.6535 73.6929 96.7585 73.5785C96.8635 73.4641 97.0154 73.2841 96.8616 73.0254C96.7079 72.7648 96.5598 72.7985 96.3685 72.806C96.1754 72.8154 96.1847 72.7441 96.1829 72.6298C96.181 72.5154 96.0404 72.0748 95.6597 72.0841C95.2791 72.0916 95.116 72.3073 95.0185 72.4891C94.9266 72.6729 94.8066 72.626 94.7466 72.566Z" fill="#171C61"/>
<path d="M93.2167 79.3284C93.2167 79.3284 93.153 80.0353 92.9805 80.2021C92.808 80.369 91.5761 81.3984 90.918 81.7096C91.0492 82.0921 91.1336 82.1409 91.1336 82.1409C91.1336 82.1409 92.9411 81.6384 93.528 81.0515C93.7323 80.8246 94.1055 80.3278 94.2105 79.5909C93.7436 79.1221 93.2167 79.3284 93.2167 79.3284Z" fill="#FFBE92"/>
<path d="M92.9805 79.6488L94.4617 80.4925C94.4617 80.4925 95.628 77.845 94.7223 77.0182C94.4355 76.7763 93.6536 77.125 93.3667 78.0063C93.0798 78.8857 92.9805 79.6488 92.9805 79.6488Z" fill="url(#paint27_linear_13565_44679)"/>
<path d="M98.2389 77.2591C98.2389 77.2591 97.607 76.046 96.6264 76.1248C96.4914 76.8073 95.7151 76.8373 95.1695 76.6516C94.7701 76.706 94.5451 76.7323 94.2714 77.1354C93.9976 77.5385 94.0257 77.6341 93.8382 78.4835C93.7032 79.3498 94.0426 80.0848 93.8964 80.876C93.752 81.6692 93.0057 81.791 93.3939 82.121C93.782 82.451 96.2176 82.6348 97.337 84.2867C97.682 84.7967 97.9539 83.6435 97.9595 82.7735C97.967 81.9017 97.5132 79.6535 98.2389 77.2591Z" fill="url(#paint28_linear_13565_44679)"/>
<path d="M89.2441 82.0098L90.9916 81.9629L94.4023 82.1898L91.6498 82.5835L89.2441 82.0098Z" fill="url(#paint29_linear_13565_44679)"/>
<path d="M94.4328 82.0449L91.6484 82.4293V82.5849L94.4328 82.2005V82.0449Z" fill="url(#paint30_linear_13565_44679)"/>
<path d="M96.9314 79.3535C96.9314 79.3535 96.5208 80.6716 96.4008 80.7129C96.2808 80.7541 94.3158 81.5791 94.0833 81.5904C93.8508 81.6016 92.8214 81.1123 92.4277 82.1416C92.4033 82.2485 92.3789 82.3217 92.6677 82.2973C92.9564 82.2729 93.3933 82.1641 93.697 82.2598C94.0008 82.3554 94.1283 82.1885 94.4039 82.1885C94.6795 82.1885 96.8808 81.9973 97.1676 81.7216C97.4545 81.446 97.8014 80.9548 97.9814 79.9029C97.2501 79.4379 96.9314 79.3535 96.9314 79.3535Z" fill="#FFBE92"/>
<path d="M96.5 79.5941L97.9813 80.4379C97.9813 80.4379 99.1475 77.7903 98.2419 76.9635C97.955 76.7216 97.1731 77.0703 96.8862 77.9516C96.5975 78.831 96.5 79.5941 96.5 79.5941Z" fill="url(#paint31_linear_13565_44679)"/>
<path d="M87.7948 79.2891L90.821 79.3491C90.9072 79.351 90.9822 79.4091 91.0047 79.4935L91.7529 82.3153C91.7866 82.4447 91.6816 82.5703 91.5485 82.5591L88.631 82.3116C88.5523 82.3041 88.4866 82.2516 88.4623 82.1785L87.6054 79.5441C87.5641 79.4166 87.6598 79.2872 87.7948 79.2891Z" fill="url(#paint32_linear_13565_44679)"/>
<defs>
<linearGradient id="paint0_linear_13565_44679" x1="47.9148" y1="79.445" x2="47.9148" y2="61.2973" gradientUnits="userSpaceOnUse">
<stop offset="5.35827e-07" stop-color="white"/>
<stop offset="1" stop-color="#DBE3EE"/>
</linearGradient>
<linearGradient id="paint1_linear_13565_44679" x1="35.7983" y1="90.3189" x2="35.7983" y2="49.7272" gradientUnits="userSpaceOnUse">
<stop offset="5.35827e-07" stop-color="white"/>
<stop offset="1" stop-color="#DBE3EE"/>
</linearGradient>
<linearGradient id="paint2_linear_13565_44679" x1="106.259" y1="82.3172" x2="106.259" y2="52.977" gradientUnits="userSpaceOnUse">
<stop offset="5.35827e-07" stop-color="white"/>
<stop offset="1" stop-color="#DBE3EE"/>
</linearGradient>
<linearGradient id="paint3_linear_13565_44679" x1="117.982" y1="86.5671" x2="117.982" y2="54.7407" gradientUnits="userSpaceOnUse">
<stop offset="5.35827e-07" stop-color="white"/>
<stop offset="1" stop-color="#DBE3EE"/>
</linearGradient>
<linearGradient id="paint4_linear_13565_44679" x1="22.597" y1="94.4573" x2="22.597" y2="66.236" gradientUnits="userSpaceOnUse">
<stop offset="5.35827e-07" stop-color="white"/>
<stop offset="1" stop-color="#EDF1F9"/>
</linearGradient>
<linearGradient id="paint5_linear_13565_44679" x1="128.099" y1="91.3439" x2="128.099" y2="68.2566" gradientUnits="userSpaceOnUse">
<stop offset="5.35827e-07" stop-color="white"/>
<stop offset="1" stop-color="#EDF1F9"/>
</linearGradient>
<linearGradient id="paint6_linear_13565_44679" x1="23.7168" y1="43.4004" x2="23.7168" y2="31.2989" gradientUnits="userSpaceOnUse">
<stop offset="0.2332" stop-color="white"/>
<stop offset="1" stop-color="#D3DFEE"/>
</linearGradient>
<linearGradient id="paint7_linear_13565_44679" x1="120.668" y1="36.496" x2="120.668" y2="24.3945" gradientUnits="userSpaceOnUse">
<stop offset="0.2332" stop-color="white"/>
<stop offset="1" stop-color="#D3DFEE"/>
</linearGradient>
<linearGradient id="paint8_linear_13565_44679" x1="96.3356" y1="44.5919" x2="96.3356" y2="35.8324" gradientUnits="userSpaceOnUse">
<stop offset="0.2332" stop-color="white"/>
<stop offset="1" stop-color="#D3DFEE"/>
</linearGradient>
<linearGradient id="paint9_linear_13565_44679" x1="75.0002" y1="141.251" x2="75.0002" y2="75.2273" gradientUnits="userSpaceOnUse">
<stop offset="0.4065" stop-color="white"/>
<stop offset="1" stop-color="#DAE4EF"/>
</linearGradient>
<linearGradient id="paint10_linear_13565_44679" x1="35.8003" y1="108.15" x2="26.156" y2="96.6568" gradientUnits="userSpaceOnUse">
<stop offset="0.4034" stop-color="#EFF4F8"/>
<stop offset="1" stop-color="#D4DFEC"/>
</linearGradient>
<linearGradient id="paint11_linear_13565_44679" x1="20.9787" y1="85.5953" x2="33.0138" y2="85.5953" gradientUnits="userSpaceOnUse">
<stop offset="0.1022" stop-color="#F0F5F8"/>
<stop offset="1" stop-color="#B4C7DC"/>
</linearGradient>
<linearGradient id="paint12_linear_13565_44679" x1="133.088" y1="104.405" x2="124.207" y2="93.8212" gradientUnits="userSpaceOnUse">
<stop offset="0.4034" stop-color="#EFF4F8"/>
<stop offset="1" stop-color="#D4DFEC"/>
</linearGradient>
<linearGradient id="paint13_linear_13565_44679" x1="119.439" y1="83.6363" x2="130.522" y2="83.6363" gradientUnits="userSpaceOnUse">
<stop offset="0.1022" stop-color="#F0F5F8"/>
<stop offset="1" stop-color="#B4C7DC"/>
</linearGradient>
<linearGradient id="paint14_linear_13565_44679" x1="47.0863" y1="85.8116" x2="42.3161" y2="80.1266" gradientUnits="userSpaceOnUse">
<stop offset="1.4385e-07" stop-color="#EAEFF6"/>
<stop offset="1" stop-color="#CDDAE9"/>
</linearGradient>
<linearGradient id="paint15_linear_13565_44679" x1="39.756" y1="74.6553" x2="45.7087" y2="74.6553" gradientUnits="userSpaceOnUse">
<stop offset="0.1022" stop-color="#F0F5F8"/>
<stop offset="1" stop-color="#B4C7DC"/>
</linearGradient>
<linearGradient id="paint16_linear_13565_44679" x1="101.284" y1="130.972" x2="85.1653" y2="74.7588" gradientUnits="userSpaceOnUse">
<stop offset="0.0938" stop-color="white"/>
<stop offset="0.9362" stop-color="#BBCBE0"/>
</linearGradient>
<linearGradient id="paint17_linear_13565_44679" x1="52.0308" y1="63.9024" x2="103.486" y2="63.9024" gradientUnits="userSpaceOnUse">
<stop stop-color="#EFF3F9"/>
<stop offset="1" stop-color="#B6C9DE"/>
</linearGradient>
<linearGradient id="paint18_linear_13565_44679" x1="57.4022" y1="63.9016" x2="98.1132" y2="63.9016" gradientUnits="userSpaceOnUse">
<stop stop-color="#EFF3F9"/>
<stop offset="1" stop-color="#9BB8D1"/>
</linearGradient>
<linearGradient id="paint19_linear_13565_44679" x1="43.0126" y1="71.2653" x2="94.4679" y2="71.2653" gradientUnits="userSpaceOnUse">
<stop stop-color="#EFF3F9"/>
<stop offset="1" stop-color="#B6C9DE"/>
</linearGradient>
<linearGradient id="paint20_linear_13565_44679" x1="48.3839" y1="71.2645" x2="89.095" y2="71.2645" gradientUnits="userSpaceOnUse">
<stop stop-color="#E5EBF4"/>
<stop offset="1" stop-color="#9BB8D1"/>
</linearGradient>
<linearGradient id="paint21_linear_13565_44679" x1="81.9808" y1="70.1178" x2="55.5015" y2="70.1178" gradientUnits="userSpaceOnUse">
<stop stop-color="#C5D6E8"/>
<stop offset="1" stop-color="#F5F9FA"/>
</linearGradient>
<linearGradient id="paint22_linear_13565_44679" x1="89.2971" y1="89.7462" x2="107.871" y2="89.7462" gradientUnits="userSpaceOnUse">
<stop stop-color="#E5EBF4"/>
<stop offset="1" stop-color="#9BB8D1"/>
</linearGradient>
<linearGradient id="paint23_linear_13565_44679" x1="107.871" y1="85.9405" x2="89.297" y2="85.9405" gradientUnits="userSpaceOnUse">
<stop stop-color="#C5D6E8"/>
<stop offset="1" stop-color="#F5F9FA"/>
</linearGradient>
<linearGradient id="paint24_linear_13565_44679" x1="107.871" y1="92.5138" x2="89.2971" y2="92.5138" gradientUnits="userSpaceOnUse">
<stop stop-color="#C5D6E8"/>
<stop offset="1" stop-color="#F5F9FA"/>
</linearGradient>
<linearGradient id="paint25_linear_13565_44679" x1="88.0725" y1="85.7923" x2="93.2862" y2="85.7923" gradientUnits="userSpaceOnUse">
<stop stop-color="#4EA2F4"/>
<stop offset="0.6903" stop-color="#1E77CF"/>
</linearGradient>
<linearGradient id="paint26_linear_13565_44679" x1="89.4099" y1="90.7489" x2="94.7456" y2="81.5071" gradientUnits="userSpaceOnUse">
<stop stop-color="#78C8FF"/>
<stop offset="0.6903" stop-color="#2A80E2"/>
</linearGradient>
<linearGradient id="paint27_linear_13565_44679" x1="94.0239" y1="80.4926" x2="94.0239" y2="76.944" gradientUnits="userSpaceOnUse">
<stop stop-color="#13C57B"/>
<stop offset="0.4796" stop-color="#2FD791"/>
</linearGradient>
<linearGradient id="paint28_linear_13565_44679" x1="95.7616" y1="84.4124" x2="95.7616" y2="76.1225" gradientUnits="userSpaceOnUse">
<stop stop-color="#13C57B"/>
<stop offset="0.4796" stop-color="#2FD791"/>
</linearGradient>
<linearGradient id="paint29_linear_13565_44679" x1="94.4021" y1="82.2732" x2="89.2439" y2="82.2732" gradientUnits="userSpaceOnUse">
<stop stop-color="#171C61"/>
<stop offset="0.7869" stop-color="#272F7C"/>
</linearGradient>
<linearGradient id="paint30_linear_13565_44679" x1="91.6482" y1="82.3149" x2="94.4337" y2="82.3149" gradientUnits="userSpaceOnUse">
<stop stop-color="#171C61"/>
<stop offset="0.7869" stop-color="#272F7C"/>
</linearGradient>
<linearGradient id="paint31_linear_13565_44679" x1="97.5434" y1="80.438" x2="97.5434" y2="76.8893" gradientUnits="userSpaceOnUse">
<stop stop-color="#13C57B"/>
<stop offset="0.4796" stop-color="#2FD791"/>
</linearGradient>
<linearGradient id="paint32_linear_13565_44679" x1="91.7589" y1="80.9253" x2="87.5955" y2="80.9253" gradientUnits="userSpaceOnUse">
<stop stop-color="#171C61"/>
<stop offset="0.7869" stop-color="#272F7C"/>
</linearGradient>
</defs>
</svg>
