<svg width="24" height="24" viewBox="0 0 24 24" fill="none" xmlns="http://www.w3.org/2000/svg">
<path d="M20.7231 2.52979C20.4155 2.39795 20.0859 2.33203 19.7563 2.33203H4.24365C3.89209 2.33203 3.5625 2.39795 3.25488 2.50781C2.2002 2.92529 1.45312 3.91406 1.45312 5.10059V18.9214C1.45312 20.1079 2.2002 21.0967 3.27686 21.4922C3.58447 21.6021 3.91406 21.668 4.26562 21.668H19.7563C21.2944 21.668 22.5469 20.4155 22.5469 18.8774V5.10059C22.5469 3.91406 21.7998 2.92529 20.7231 2.52979ZM9.89062 8.55029C9.89062 9.69287 8.9458 10.6157 7.78125 10.6157C6.6167 10.6157 5.67188 9.69287 5.67188 8.55029C5.67188 7.40771 6.6167 6.48486 7.78125 6.48486C8.9458 6.48486 9.89062 7.40771 9.89062 8.55029ZM19.7563 20.2617H4.24365C3.58447 20.2617 3.01318 19.8003 2.88135 19.1631C2.85937 19.0752 2.85937 18.9873 2.85938 18.8994V17.8447L7.01221 14.3291L8.50635 15.7573C9.27539 16.5044 10.5059 16.5483 11.3408 15.8672L18.3501 10.0664C19.6904 11.5166 20.6133 12.4834 21.1846 12.9888V18.8774C21.1406 19.6465 20.5254 20.2617 19.7563 20.2617Z" fill="#DFDFE6"/>
</svg>
