<svg width="20" height="20" viewBox="0 0 20 20" fill="none" xmlns="http://www.w3.org/2000/svg">
<path d="M16.7393 8.01525C16.162 7.15003 14.9832 6.93417 14.1368 7.53867L9.41171 10.9132C8.92933 11.2577 8.40353 11.5369 7.84797 11.7436L1.96159 13.9337L2.18496 15.4322L6.54278 15.1766C9.23955 15.0185 11.8234 14.039 13.9474 12.3699L16.3452 10.4856C17.1014 9.89133 17.273 8.81528 16.7393 8.01525V8.01525Z" fill="url(#paint0_linear_13518_64606)"/>
<path d="M9.80189 6.92682C9.47414 6.2249 8.57825 6.01095 7.9687 6.48904L5.07726 8.75688C4.78914 8.98287 4.46917 9.165 4.12776 9.29737L1.1298 10.4597L0.934642 11.1496L4.76135 10.5713C5.25044 10.4974 5.724 10.3434 6.16298 10.1154L9.26605 8.50406C9.83844 8.20684 10.0748 7.51122 9.80189 6.92682V6.92682Z" fill="url(#paint1_linear_13518_64606)"/>
<defs>
<linearGradient id="paint0_linear_13518_64606" x1="18.5" y1="7.5" x2="3.5" y2="15.5" gradientUnits="userSpaceOnUse">
<stop stop-color="#926CFF" stop-opacity="0.82"/>
<stop offset="1" stop-color="#817FD6" stop-opacity="0"/>
</linearGradient>
<linearGradient id="paint1_linear_13518_64606" x1="10.671" y1="5.19075" x2="3.79171" y2="10.7518" gradientUnits="userSpaceOnUse">
<stop stop-color="#7B40FA"/>
<stop offset="1" stop-color="#3C2E8F" stop-opacity="0"/>
</linearGradient>
</defs>
</svg>
