<svg width="20" height="20" viewBox="0 0 20 20" fill="none" xmlns="http://www.w3.org/2000/svg">
<path d="M17.5475 3.47086C15.9738 1.67649 13.823 0.497708 11.4885 0.144073C10.9246 0.0523903 10.3738 0 9.82295 0C7.69836 0 5.6918 0.667976 4 1.95154C2.47869 3.06483 1.33771 4.59725 0.695082 6.35232C0.236066 7.53111 0 8.76228 0 10.0196C0 15.5206 4.48525 20 9.99344 20C15.5016 20 19.9869 15.5206 19.9869 10.0196C20 7.60969 19.1213 5.27832 17.5475 3.47086Z" fill="#5C3D26"/>
<path d="M9.90146 19.6605C15.312 19.6605 19.6982 15.2801 19.6982 9.87662C19.6982 4.47313 15.312 0.0927277 9.90146 0.0927277C4.49088 0.0927277 0.104736 4.47313 0.104736 9.87662C0.104736 15.2801 4.49088 19.6605 9.90146 19.6605Z" fill="#AF5320"/>
<path d="M9.73104 19.0178C14.975 19.0178 19.2261 14.7723 19.2261 9.53514C19.2261 4.29802 14.975 0.0524902 9.73104 0.0524902C4.48705 0.0524902 0.235962 4.29802 0.235962 9.53514C0.235962 14.7723 4.48705 19.0178 9.73104 19.0178Z" fill="#F79905"/>
<path d="M9.84908 18.625C14.8758 18.625 18.9507 14.5554 18.9507 9.53528C18.9507 4.51516 14.8758 0.445557 9.84908 0.445557C4.82238 0.445557 0.747437 4.51516 0.747437 9.53528C0.747437 14.5554 4.82238 18.625 9.84908 18.625Z" fill="url(#paint0_linear_104_9464)"/>
<path d="M9.5999 18.7683C14.7715 18.7683 18.9638 14.6049 18.9638 9.469C18.9638 4.33315 14.7715 0.169724 9.5999 0.169724C4.42834 0.169724 0.235962 4.33315 0.235962 9.469C0.235962 14.6049 4.42834 18.7683 9.5999 18.7683Z" fill="url(#paint1_linear_104_9464)"/>
<path opacity="0.61" d="M9.60004 18.7557C9.82299 18.7557 10.0591 18.7426 10.282 18.7295L18.964 9.40403C18.964 8.99801 18.9377 8.60508 18.8853 8.22525L8.68201 18.7164C8.97053 18.7426 9.28529 18.7557 9.60004 18.7557Z" fill="#FFE54A"/>
<path opacity="0.61" d="M5.67871 17.9036C6.07215 18.0869 6.49183 18.2441 6.9115 18.3751L18.3344 6.10266C18.2295 5.82761 18.0984 5.55256 17.9672 5.27751L5.67871 17.9036Z" fill="#FFE54A"/>
<path opacity="0.61" d="M12.9182 0.772216C11.8821 0.379286 10.7674 0.169724 9.60014 0.169724C9.19358 0.169724 8.78702 0.195919 8.39358 0.248309L0.341071 8.14619C0.275497 8.57842 0.249268 9.01064 0.249268 9.45596C0.249268 10.9098 0.577138 12.272 1.18042 13.49L12.9182 0.772216Z" fill="#FFE54A"/>
<path d="M9.73122 17.0397C13.8815 17.0397 17.246 13.6796 17.246 9.53474C17.246 5.3899 13.8815 2.02983 9.73122 2.02983C5.58092 2.02983 2.21643 5.3899 2.21643 9.53474C2.21643 13.6796 5.58092 17.0397 9.73122 17.0397Z" fill="#BF601E"/>
<path d="M9.98031 17.0664C13.8771 17.0664 17.0361 13.9116 17.0361 10.0199C17.0361 6.12826 13.8771 2.97343 9.98031 2.97343C6.08353 2.97343 2.92456 6.12826 2.92456 10.0199C2.92456 13.9116 6.08353 17.0664 9.98031 17.0664Z" fill="#D07323"/>
<path d="M16.7738 10.4387C15.2787 9.32541 13.2328 8.63124 10.977 8.63124C7.56716 8.63124 4.65567 10.2029 3.3573 12.4557C3.7114 13.3987 4.24911 14.237 4.94419 14.9442C4.97042 14.9704 4.98354 14.9835 5.00977 15.0097C5.44256 15.4288 5.92781 15.7956 6.46551 16.1099C7.59339 16.6731 8.86553 16.9743 10.2164 17.0398C10.636 17.0267 11.0426 16.9743 11.436 16.8957C14.3344 16.2933 16.5902 13.8964 16.9705 10.9233C16.9049 10.7661 16.8393 10.5959 16.7738 10.4387Z" fill="#E1862B"/>
<path d="M8.73238 0.953634C9.0629 0.911554 9.30862 0.702926 9.28121 0.48765C9.2538 0.272375 8.96364 0.131972 8.63312 0.174052C8.30261 0.216132 8.05689 0.42476 8.0843 0.640035C8.11171 0.855311 8.40186 0.995714 8.73238 0.953634Z" fill="white"/>
<path opacity="0.7" d="M0.61629 10.0717C0.61629 4.93747 4.81301 0.772442 9.98022 0.772442C13.3376 0.772442 16.2753 2.52752 17.9278 5.14703C16.354 2.17388 13.2196 0.130661 9.5999 0.130661C4.43268 0.130661 0.235962 4.29569 0.235962 9.42994C0.235962 11.2374 0.760552 12.927 1.65236 14.3415C0.983503 13.058 0.61629 11.6172 0.61629 10.0717Z" fill="white"/>
<path d="M9.9936 16.3067C13.4413 16.3067 16.2362 13.5155 16.2362 10.0723C16.2362 6.6291 13.4413 3.83784 9.9936 3.83784C6.54589 3.83784 3.75098 6.6291 3.75098 10.0723C3.75098 13.5155 6.54589 16.3067 9.9936 16.3067Z" fill="#BF601E"/>
<path d="M9.8754 16.0448C13.2507 16.0448 15.9869 13.3122 15.9869 9.94132C15.9869 6.57046 13.2507 3.83784 9.8754 3.83784C6.50012 3.83784 3.76392 6.57046 3.76392 9.94132C3.76392 13.3122 6.50012 16.0448 9.8754 16.0448Z" fill="#F79905"/>
<path d="M9.74444 15.6517C13.04 15.6517 15.7116 12.9836 15.7116 9.69231C15.7116 6.40102 13.04 3.73291 9.74444 3.73291C6.44883 3.73291 3.77722 6.40102 3.77722 9.69231C3.77722 12.9836 6.44883 15.6517 9.74444 15.6517Z" fill="url(#paint2_linear_104_9464)"/>
<path opacity="0.61" d="M9.57395 15.6518L15.6854 9.07677C15.6461 8.69694 15.5674 8.33021 15.4625 7.97658L8.1969 15.4422C8.6428 15.5732 9.10182 15.6387 9.57395 15.6518Z" fill="#FFE54A"/>
<path opacity="0.61" d="M9.74447 3.73291C6.45265 3.73291 3.77722 6.40482 3.77722 9.69231C3.77722 10.0459 3.80345 10.3865 3.86903 10.727L10.2953 3.75911C10.1117 3.74601 9.92808 3.73291 9.74447 3.73291Z" fill="#FFE54A"/>
<path d="M12.9051 11.1859L7.81661 13.9495L6.83301 8.23897L11.8166 5.69804L12.9051 11.1859Z" fill="#BF601E" stroke="#F7EB78" stroke-width="0.833333" stroke-miterlimit="10"/>
<path d="M12.2885 10.9099L8.20986 13.1234L7.42297 8.55235L11.423 6.52222L12.2885 10.9099Z" fill="url(#paint3_linear_104_9464)"/>
<path d="M12.2623 3.83656L11.9738 4.39974H11.3837L11.882 4.71408L11.8164 5.26416L12.1705 4.80576L12.7213 4.72717L12.1836 4.50452L12.2623 3.83656Z" fill="#F9FFFF"/>
<defs>
<linearGradient id="paint0_linear_104_9464" x1="0.743778" y1="9.53213" x2="18.9597" y2="9.53213" gradientUnits="userSpaceOnUse">
<stop stop-color="#F9D63A"/>
<stop offset="1" stop-color="#FFC000"/>
</linearGradient>
<linearGradient id="paint1_linear_104_9464" x1="0.24025" y1="9.4627" x2="18.9597" y2="9.4627" gradientUnits="userSpaceOnUse">
<stop stop-color="#F9D63A"/>
<stop offset="1" stop-color="#FFC000"/>
</linearGradient>
<linearGradient id="paint2_linear_104_9464" x1="3.77775" y1="9.69302" x2="15.7179" y2="9.69302" gradientUnits="userSpaceOnUse">
<stop stop-color="#F9D63A"/>
<stop offset="1" stop-color="#FFC000"/>
</linearGradient>
<linearGradient id="paint3_linear_104_9464" x1="7.42477" y1="9.82353" x2="12.2933" y2="9.82353" gradientUnits="userSpaceOnUse">
<stop stop-color="#F9D63A"/>
<stop offset="1" stop-color="#FFC000"/>
</linearGradient>
</defs>
</svg>
