<svg width="40" height="39" viewBox="0 0 40 39" fill="none" xmlns="http://www.w3.org/2000/svg">
<g filter="url(#filter0_d_13565_44371)">
<path fill-rule="evenodd" clip-rule="evenodd" d="M27.6043 18.0786C30.8192 17.1439 33.2471 14.4714 33.5185 11.1407C33.8771 6.73822 30.3322 2.85284 25.6006 2.46245C20.8691 2.07206 16.7428 5.32449 16.3841 9.72696C16.1129 13.0564 18.0743 16.0901 21.093 17.54L18.2441 21.3907C17.432 22.4884 18.1421 24.0525 19.5036 24.1649L28.0995 24.8741C29.461 24.9865 30.4148 23.5596 29.7912 22.3434L27.6043 18.0786Z" fill="url(#paint0_linear_13565_44371)"/>
<path fill-rule="evenodd" clip-rule="evenodd" d="M13.2317 18.0786C10.0167 17.1439 7.58881 14.4714 7.31749 11.1407C6.95886 6.73822 10.5038 2.85284 15.2353 2.46245C19.9668 2.07206 24.0932 5.32449 24.4518 9.72696C24.723 13.0564 22.7617 16.0901 19.7429 17.54L22.5918 21.3907C23.4039 22.4884 22.6938 24.0525 21.3323 24.1649L12.7364 24.8741C11.3749 24.9865 10.4211 23.5596 11.0448 22.3434L13.2317 18.0786Z" fill="url(#paint1_linear_13565_44371)"/>
<path fill-rule="evenodd" clip-rule="evenodd" d="M23.6194 18.2615C26.9581 16.8831 29.3087 13.5865 29.3087 9.73906C29.3087 4.65157 25.1988 0.527344 20.129 0.527344C15.0591 0.527344 10.9492 4.65157 10.9492 9.73906C10.9492 13.5865 13.2998 16.8831 16.6385 18.2615L13.784 23.223C13.0701 24.4638 13.9657 26.0125 15.3973 26.0125H24.8606C26.2922 26.0125 27.1878 24.4638 26.4739 23.223L23.6194 18.2615Z" fill="url(#paint2_linear_13565_44371)"/>
<path d="M15.8477 12.8105C19.5196 14.9599 21.1614 14.9652 24.4154 12.8105" stroke="white" stroke-width="1.24085" stroke-linecap="round"/>
<path d="M19.9921 19.7707C20.0605 19.8203 20.0605 19.9222 19.9921 19.9717L18.4918 21.0582C18.4097 21.1177 18.2949 21.059 18.2949 20.9577L18.2949 18.7847C18.2949 18.6834 18.4097 18.6248 18.4918 18.6842L19.9921 19.7707Z" fill="white"/>
<path d="M20.2696 19.7707C20.2012 19.8203 20.2012 19.9222 20.2696 19.9717L21.7699 21.0582C21.852 21.1177 21.9668 21.059 21.9668 20.9577L21.9668 18.7847C21.9668 18.6834 21.852 18.6248 21.7699 18.6842L20.2696 19.7707Z" fill="white"/>
<rect y="24.1211" width="40" height="15.0276" rx="7.51379" fill="#20CEFF"/>
<path d="M7.21979 35.1348V28.0382H8.29441V35.1348H7.21979ZM9.69392 35.1348V30.1064H10.6469L10.728 30.9884C10.8834 30.6775 11.1099 30.4341 11.4072 30.2584C11.7114 30.0759 12.0594 29.9847 12.4514 29.9847C13.0597 29.9847 13.5362 30.1739 13.8809 30.5524C14.2323 30.9309 14.4081 31.4952 14.4081 32.2455V35.1348H13.3436V32.357C13.3436 31.3837 12.9448 30.8971 12.1473 30.8971C11.7485 30.8971 11.4174 31.039 11.1538 31.3229C10.897 31.6068 10.7685 32.0123 10.7685 32.5395V35.1348H9.69392ZM17.0037 35.1348L15.118 30.1064H16.2433L17.6424 34.1108L19.0414 30.1064H20.1566L18.2811 35.1348H17.0037ZM21.648 29.1534C21.4452 29.1534 21.2762 29.0926 21.1411 28.9709C21.0127 28.8425 20.9485 28.6837 20.9485 28.4944C20.9485 28.3052 21.0127 28.1497 21.1411 28.0281C21.2762 27.8997 21.4452 27.8355 21.648 27.8355C21.8507 27.8355 22.0163 27.8997 22.1447 28.0281C22.2799 28.1497 22.3475 28.3052 22.3475 28.4944C22.3475 28.6837 22.2799 28.8425 22.1447 28.9709C22.0163 29.0926 21.8507 29.1534 21.648 29.1534ZM21.1107 35.1348V30.1064H22.1853V35.1348H21.1107ZM25.7126 35.1348C25.2192 35.1348 24.8272 35.0165 24.5366 34.7799C24.2459 34.5366 24.1006 34.1075 24.1006 33.4924V31.0086H23.2389V30.1064H24.1006L24.2324 28.829H25.1753V30.1064H26.5946V31.0086H25.1753V33.4924C25.1753 33.7695 25.2327 33.9621 25.3476 34.0703C25.4693 34.1717 25.6754 34.2224 25.966 34.2224H26.5439V35.1348H25.7126ZM29.9259 35.2564C29.4325 35.2564 28.9932 35.1483 28.608 34.932C28.2295 34.709 27.9321 34.4015 27.7158 34.0095C27.4996 33.6175 27.3914 33.1612 27.3914 32.6408C27.3914 32.1137 27.4962 31.6507 27.7057 31.2519C27.922 30.8532 28.2194 30.5423 28.5978 30.3192C28.9831 30.0962 29.4291 29.9847 29.936 29.9847C30.4294 29.9847 30.8586 30.0962 31.2236 30.3192C31.5885 30.5355 31.8724 30.8261 32.0751 31.1911C32.2779 31.5561 32.3793 31.9582 32.3793 32.3975C32.3793 32.4651 32.3759 32.5395 32.3691 32.6206C32.3691 32.6949 32.3658 32.7794 32.359 32.874H28.4458C28.4796 33.3606 28.6384 33.7324 28.9223 33.9892C29.2129 34.2392 29.5474 34.3643 29.9259 34.3643C30.23 34.3643 30.4835 34.2967 30.6863 34.1615C30.8958 34.0196 31.0512 33.8304 31.1526 33.5938H32.2272C32.092 34.0669 31.8217 34.4623 31.4162 34.7799C31.0174 35.0976 30.5207 35.2564 29.9259 35.2564ZM29.9259 30.8667C29.5677 30.8667 29.25 30.9748 28.9729 31.1911C28.6958 31.4006 28.5269 31.7183 28.466 32.1441H31.3047C31.2844 31.7521 31.1458 31.4412 30.889 31.2114C30.6322 30.9816 30.3111 30.8667 29.9259 30.8667Z" fill="white"/>
</g>
<defs>
<filter id="filter0_d_13565_44371" x="-3.37931" y="-8.68966" width="46.7586" height="54.7586" filterUnits="userSpaceOnUse" color-interpolation-filters="sRGB">
<feFlood flood-opacity="0" result="BackgroundImageFix"/>
<feColorMatrix in="SourceAlpha" type="matrix" values="0 0 0 0 0 0 0 0 0 0 0 0 0 0 0 0 0 0 127 0" result="hardAlpha"/>
<feOffset dy="1.68966"/>
<feGaussianBlur stdDeviation="1.68966"/>
<feComposite in2="hardAlpha" operator="out"/>
<feColorMatrix type="matrix" values="0 0 0 0 0.235294 0 0 0 0 0.258824 0 0 0 0 0.34902 0 0 0 0.27 0"/>
<feBlend mode="normal" in2="BackgroundImageFix" result="effect1_dropShadow_13565_44371"/>
<feBlend mode="normal" in="SourceGraphic" in2="effect1_dropShadow_13565_44371" result="shape"/>
</filter>
<linearGradient id="paint0_linear_13565_44371" x1="25.6025" y1="2.4626" x2="23.5912" y2="26.9111" gradientUnits="userSpaceOnUse">
<stop stop-color="#BD8DF2"/>
<stop offset="1" stop-color="#7268F7"/>
</linearGradient>
<linearGradient id="paint1_linear_13565_44371" x1="15.2334" y1="2.4626" x2="17.2447" y2="26.9111" gradientUnits="userSpaceOnUse">
<stop stop-color="#BD8DF2"/>
<stop offset="1" stop-color="#7268F7"/>
</linearGradient>
<linearGradient id="paint2_linear_13565_44371" x1="20.129" y1="0.527344" x2="20.129" y2="28.7759" gradientUnits="userSpaceOnUse">
<stop stop-color="#1DECF6"/>
<stop offset="1" stop-color="#1F9EF7"/>
</linearGradient>
</defs>
</svg>
