<svg width="24" height="24" viewBox="0 0 24 24" fill="none" xmlns="http://www.w3.org/2000/svg">
<path d="M12 24C18.6274 24 24 18.6274 24 12C24 5.37258 18.6274 0 12 0C5.37258 0 0 5.37258 0 12C0 18.6274 5.37258 24 12 24Z" fill="#FFDE39"/>
<path opacity="0.63" d="M3.07812 20.0297C5.264 22.4833 8.47589 24 12.0001 24C18.6023 24 24.0001 18.6468 24.0001 12C24.0001 8.83271 22.7956 5.97769 20.7882 3.83643L3.07812 20.0297Z" fill="url(#paint0_linear)"/>
<path d="M12 21.3236C17.1492 21.3236 21.3234 17.1494 21.3234 12.0002C21.3234 6.85099 17.1492 2.67676 12 2.67676C6.85081 2.67676 2.67657 6.85099 2.67657 12.0002C2.67657 17.1494 6.85081 21.3236 12 21.3236Z" fill="url(#paint1_linear)"/>
<path opacity="0.78" d="M12 21.3232C17.1747 21.3232 21.3234 17.1299 21.3234 11.9998C21.3234 9.54626 20.3866 7.31577 18.8253 5.62061L5.04089 18.2005C6.73606 20.1187 9.2342 21.3232 12 21.3232Z" fill="url(#paint2_linear)"/>
<path d="M14.7659 16.7284L11.777 14.9886L8.65436 16.4608L9.41272 13.0704L7.09302 10.5723L10.4834 10.26L12.1785 7.22656L13.5168 10.3938L16.9071 11.063L14.3198 13.3381L14.7659 16.7284Z" fill="#FE6308"/>
<path d="M14.7659 16.7286L14.3198 13.3383L16.9071 11.0632L13.606 10.394L9.10045 14.4981L8.65436 16.461L11.777 14.9888L14.7659 16.7286Z" fill="#EF580C"/>
<defs>
<linearGradient id="paint0_linear" x1="3.0763" y1="13.9137" x2="23.9892" y2="13.9137" gradientUnits="userSpaceOnUse">
<stop offset="0.00558659" stop-color="#FFCD6B"/>
<stop offset="1" stop-color="#FFB958"/>
</linearGradient>
<linearGradient id="paint1_linear" x1="2.65373" y1="11.9947" x2="21.3353" y2="11.9947" gradientUnits="userSpaceOnUse">
<stop stop-color="#FFD253"/>
<stop offset="1" stop-color="#FFAC1F"/>
</linearGradient>
<linearGradient id="paint2_linear" x1="5.04254" y1="13.4841" x2="21.3353" y2="13.4841" gradientUnits="userSpaceOnUse">
<stop stop-color="#FFA953"/>
<stop offset="1" stop-color="#FF831F"/>
</linearGradient>
</defs>
</svg>
