<svg width="89" height="88" viewBox="0 0 89 88" fill="none" xmlns="http://www.w3.org/2000/svg">
<path d="M44.5001 63.6174C47.8009 63.6174 50.4768 60.9415 50.4768 57.6407C50.4768 54.3399 47.8009 51.6641 44.5001 51.6641C41.1993 51.6641 38.5234 54.3399 38.5234 57.6407C38.5234 60.9415 41.1993 63.6174 44.5001 63.6174Z" fill="white"/>
<path d="M67.5273 34.944V30.3607C67.5273 20.4607 65.144 7.33398 44.5007 7.33398C23.8573 7.33398 21.474 20.4607 21.474 30.3607V34.944C11.2073 36.2273 7.83398 41.434 7.83398 54.2307V61.0507C7.83398 76.084 12.4173 80.6673 27.4507 80.6673H61.5507C76.584 80.6673 81.1673 76.084 81.1673 61.0507V54.2307C81.1673 41.434 77.794 36.2273 67.5273 34.944ZM44.5007 68.714C38.3773 68.714 33.4273 63.7273 33.4273 57.6407C33.4273 51.5173 38.414 46.5673 44.5007 46.5673C50.5873 46.5673 55.574 51.554 55.574 57.6407C55.574 63.764 50.624 68.714 44.5007 68.714ZM27.4507 34.614C27.1573 34.614 26.9007 34.614 26.6073 34.614V30.3607C26.6073 19.6173 29.6507 12.4673 44.5007 12.4673C59.3507 12.4673 62.394 19.6173 62.394 30.3607V34.6507C62.1007 34.6507 61.844 34.6507 61.5507 34.6507H27.4507V34.614Z" fill="white"/>
</svg>
